<svg width="25" height="24" viewBox="0 0 25 24" fill="none" xmlns="http://www.w3.org/2000/svg">
<g clip-path="url(#clip0_424_5742)">
<path fill-rule="evenodd" clip-rule="evenodd" d="M15.8086 4.00446H15.8236L15.8221 4L15.8086 4.00446ZM15.7574 4.02155L15.8086 4.00446H15.7759L15.7574 4.02155ZM15.7486 4.02974L15.7574 4.02155L15.7329 4.02971L15.7486 4.02974ZM15.7486 4.02974L15.4549 4.30155C18.7495 5.19281 20.3436 6.58468 20.3436 6.58468C18.2203 5.5924 16.3068 5.09626 14.3932 4.89572C13.0105 4.69519 11.6278 4.80066 10.4596 4.89572H10.1418C9.39478 4.89572 7.80546 5.19281 5.67578 5.98753C4.93356 6.28907 4.50763 6.48664 4.50763 6.48664C4.50763 6.48664 6.10013 4.99822 9.60935 4.20351L9.39478 4.00297C9.39478 4.00297 6.73745 3.9079 3.86872 5.88949C3.86872 5.88949 1 10.5597 1 16.3173C1 16.3173 2.58932 18.902 6.94882 19C6.94882 19 7.58455 18.2082 8.22823 17.5116C5.78068 16.8164 4.82708 15.4261 4.82708 15.4261C4.82708 15.4261 5.04005 15.5241 5.3595 15.7231H5.45486C5.49973 15.7231 5.52208 15.7429 5.54574 15.7638C5.54723 15.7651 5.54872 15.7664 5.55022 15.7677V15.7766C5.57565 15.8004 5.5979 15.8212 5.64558 15.8212C5.69179 15.839 5.738 15.8568 5.78415 15.8745C6.26174 16.0582 6.73235 16.2392 7.12365 16.4154C7.86427 16.7154 8.81627 17.014 9.98442 17.2115C11.4625 17.4121 13.1567 17.5086 15.0862 17.2115L15.1478 17.1986C16.0809 17.0025 17.0138 16.8064 17.9469 16.4168C18.1174 16.3351 18.2988 16.2534 18.4896 16.1674C18.9922 15.9409 19.5601 15.6849 20.1672 15.3221C20.1672 15.3221 19.2136 16.7125 16.6627 17.4077C17.1872 18.0998 17.9263 18.8931 17.9263 18.8931C21.4997 18.8201 23.2826 17.0715 23.8626 16.5027C23.9904 16.3773 24.0597 16.3094 24.0769 16.3292C24.0769 10.5805 21.1923 5.90137 21.1923 5.90137C18.6236 4.11877 16.2181 4.03151 15.7486 4.02974ZM8.87033 10.5597C9.98286 10.5597 10.8824 11.451 10.8824 12.5428C10.8824 13.642 9.9765 14.5333 8.86397 14.5333C7.75145 14.5333 6.84554 13.642 6.84554 12.5517C6.84554 11.4525 7.75145 10.5642 8.86397 10.5642L8.87033 10.5597ZM16.0906 10.5597C17.2079 10.5597 18.1091 11.451 18.1091 12.5428C18.1091 13.642 17.2031 14.5333 16.0906 14.5333C14.9781 14.5333 14.0722 13.642 14.0722 12.5517C14.0754 11.4525 14.9828 10.5642 16.0906 10.5642V10.5597Z" fill="black"/>
</g>
<defs>
<clipPath id="clip0_424_5742">
<rect width="24" height="24" fill="white" transform="translate(0.5)"/>
</clipPath>
</defs>
</svg>
