<svg width="24" height="24" viewBox="0 0 24 24" fill="none" xmlns="http://www.w3.org/2000/svg">
<path d="M13.7222 5.87681C11.8415 6.73185 8.08028 8.49997 2.4432 11.1812C1.52947 11.577 1.04843 11.9676 1.00492 12.3476C0.932402 12.9889 1.66967 13.2422 2.67284 13.5879L3.09586 13.7331C4.08211 14.0841 5.41161 14.4931 6.10053 14.509C6.72902 14.5248 7.42761 14.2451 8.19872 13.6645C13.466 9.78252 16.1854 7.82175 16.3546 7.77953C16.4755 7.74786 16.6447 7.71091 16.7559 7.82175C16.8695 7.92995 16.8574 8.13843 16.8453 8.19385C16.7728 8.53428 13.8793 11.4688 12.383 12.9889C11.9165 13.4639 11.5853 13.7991 11.5176 13.8756C11.3686 14.0419 11.2171 14.2055 11.0632 14.3665C10.1446 15.3323 9.45812 16.0554 11.0994 17.2377C11.8899 17.8077 12.5232 18.2748 13.1541 18.7445C13.8406 19.2565 14.5271 19.7658 15.4167 20.4045C15.6415 20.5628 15.8591 20.7343 16.0694 20.898C16.8695 21.5208 17.5922 22.0802 18.4794 21.9905C18.9967 21.9377 19.5309 21.4099 19.8016 19.8265C20.4422 16.0871 21.7016 7.98801 21.9917 4.64968C22.0094 4.37217 21.9988 4.09337 21.9602 3.8184C21.9375 3.59652 21.8391 3.3921 21.6847 3.24574C21.4647 3.07998 21.2025 2.99411 20.9353 3.00031C20.2101 3.01351 19.0909 3.43839 13.7222 5.87681Z" fill="black"/>
</svg>
