<svg width="24" height="24" viewBox="0 0 24 24" fill="none" xmlns="http://www.w3.org/2000/svg">
<path d="M19.7056 19.1633L13.668 10.6009L12.9853 9.63254L8.66538 3.50759L8.30752 3H3L4.2943 4.83608L10.0374 12.9807L10.72 13.9481L15.3346 20.4928L15.6924 21H21L19.7056 19.1633ZM16.3227 19.8275L11.529 13.0287L10.8464 12.0609L5.28369 4.17183H7.6766L12.1754 10.5516L12.8581 11.5194L18.7163 19.8272L16.3227 19.8275Z" fill="black"/>
<path d="M11.2814 12L12 12.9745L11.1481 13.9002L4.61183 21H3L10.4295 12.9261L11.2814 12Z" fill="black"/>
<path d="M21.0058 3L13.6463 11.0294L12.7564 12L12.0059 10.9776L12.8957 10.0064L17.881 4.56481L19.3222 3H21.0058Z" fill="black"/>
</svg>
