<svg width="250" height="61" viewBox="0 0 250 61" fill="none" xmlns="http://www.w3.org/2000/svg">
<path d="M184.283 0.401367H175.69C175.004 0.401367 174.447 0.961662 174.447 1.65282V58.1179C174.447 58.8091 175.004 59.3694 175.69 59.3694H184.283C184.969 59.3694 185.526 58.8091 185.526 58.1179V1.65282C185.526 0.961662 184.969 0.401367 184.283 0.401367Z" fill="url(#paint0_radial_744_4260)"/>
<path d="M248.743 59.3699H240.164C239.475 59.3699 238.921 58.8121 238.921 58.1184V30.1647C238.921 20.3571 231.45 11.8962 221.709 11.4201C211.306 10.9032 202.673 19.2825 202.673 29.6342V58.1184C202.673 58.8121 202.119 59.3699 201.43 59.3699H192.85C192.161 59.3699 191.607 58.8121 191.607 58.1184V30.3552C191.607 14.4399 203.875 0.864366 219.682 0.252241C236.287 -0.373486 250 13.0388 250 29.6206V58.1048C250 58.7985 249.446 59.3563 248.757 59.3563L248.743 59.3699Z" fill="url(#paint1_linear_744_4260)"/>
<path d="M158.063 59.3692H166.683C167.372 59.3692 167.926 58.8115 167.926 58.1177V30.1096C167.926 14.1808 155.645 0.605227 139.837 0.0203077C123.233 -0.60542 109.533 12.8069 109.533 29.3887V29.8376C109.533 46.0385 122.625 59.2331 138.729 59.2331C143.945 59.2331 149.052 57.8185 153.497 55.1795C153.834 54.9755 154.05 54.5946 154.05 54.2001V42.9098C154.05 41.876 152.794 41.4135 152.091 42.1753C151.592 42.733 151.051 43.2499 150.47 43.7532C147.201 46.5418 143.026 48.0925 138.729 48.0925C128.745 48.0925 120.612 39.9036 120.612 29.8512V29.7151C120.612 21.023 126.516 13.2558 134.974 11.5418C145.958 9.311 155.726 17.1734 156.753 27.5931C156.78 27.8244 156.793 28.042 156.807 28.2733V58.1313C156.807 58.8251 157.361 59.3828 158.05 59.3828L158.063 59.3692Z" fill="url(#paint2_radial_744_4260)"/>
<path d="M75.3888 0.252221C66.1071 0.605893 58.0548 5.46208 52.9883 12.6171C47.4896 4.84996 38.3429 -0.128656 28.0749 0.252221C12.2676 0.864345 0 14.4399 0 30.3551V58.1184C0 58.8121 0.553932 59.3698 1.24297 59.3698H9.82216C10.5112 59.3698 11.0651 58.8121 11.0651 58.1184V29.6342C11.0651 19.2689 19.6984 10.9032 30.1015 11.4201C39.8291 11.9098 47.3139 20.3571 47.3139 30.1647V58.1184C47.3139 58.8121 47.8678 59.3698 48.5569 59.3698H57.1496C57.8386 59.3698 58.3926 58.8121 58.3926 58.1184V29.6342C58.3926 19.2689 67.0258 10.9032 77.4289 11.4201C87.1565 11.9098 94.6278 20.3571 94.6278 30.1647V58.1184C94.6278 58.8121 95.1818 59.3698 95.8708 59.3698H104.45C105.139 59.3698 105.693 58.8121 105.693 58.1184V29.6342C105.72 13.0524 92.0068 -0.373506 75.3888 0.252221Z" fill="#2FD8F0"/>
<path d="M75.3888 0.252221C66.1071 0.605893 58.0548 5.46208 52.9883 12.6171C47.4896 4.84996 38.3429 -0.128656 28.0749 0.252221C12.2676 0.864345 0 14.4399 0 30.3551V58.1184C0 58.8121 0.553932 59.3698 1.24297 59.3698H9.82216C10.5112 59.3698 11.0651 58.8121 11.0651 58.1184V29.6342C11.0651 19.2689 19.6984 10.9032 30.1015 11.4201C39.8291 11.9098 47.3139 20.3571 47.3139 30.1647V58.1184C47.3139 58.8121 47.8678 59.3698 48.5569 59.3698H57.1496C57.8386 59.3698 58.3926 58.8121 58.3926 58.1184V29.6342C58.3926 19.2689 67.0258 10.9032 77.4289 11.4201C87.1565 11.9098 94.6278 20.3571 94.6278 30.1647V58.1184C94.6278 58.8121 95.1818 59.3698 95.8708 59.3698H104.45C105.139 59.3698 105.693 58.8121 105.693 58.1184V29.6342C105.72 13.0524 92.0068 -0.373506 75.3888 0.252221Z" fill="url(#paint3_linear_744_4260)"/>
<defs>
<radialGradient id="paint0_radial_744_4260" cx="0" cy="0" r="1" gradientUnits="userSpaceOnUse" gradientTransform="translate(174.179 0.401366) rotate(70.3423) scale(71.3014 28.8452)">
<stop stop-color="#F67FBC"/>
<stop offset="0.637239" stop-color="#555FF5"/>
<stop offset="1" stop-color="#9EFFEE"/>
</radialGradient>
<linearGradient id="paint1_linear_744_4260" x1="208.845" y1="37.0193" x2="151.966" y2="79.4678" gradientUnits="userSpaceOnUse">
<stop offset="0.127851"/>
<stop offset="0.384615" stop-color="#F67FBC"/>
<stop offset="0.637239" stop-color="#555FF5"/>
<stop offset="1" stop-color="#9EFFEE"/>
</linearGradient>
<radialGradient id="paint2_radial_744_4260" cx="0" cy="0" r="1" gradientUnits="userSpaceOnUse" gradientTransform="translate(117.958 13.9173) rotate(53.1785) scale(76.9311 105.766)">
<stop stop-color="#F67FBC"/>
<stop offset="0.637239" stop-color="#555FF5"/>
<stop offset="0.791119" stop-color="#9EFFEE"/>
</radialGradient>
<linearGradient id="paint3_linear_744_4260" x1="93.6475" y1="38.0973" x2="112.175" y2="33.3651" gradientUnits="userSpaceOnUse">
<stop/>
<stop offset="1" stop-color="#DA549B"/>
</linearGradient>
</defs>
</svg>
